<?xml version="1.0" standalone="no"?>
<!DOCTYPE svg PUBLIC "-//W3C//DTD SVG 20010904//EN"
 "http://www.w3.org/TR/2001/REC-SVG-20010904/DTD/svg10.dtd">
<svg version="1.0" xmlns="http://www.w3.org/2000/svg"
 width="960.000000pt" height="960.000000pt" viewBox="0 0 960.000000 960.000000"
 preserveAspectRatio="xMidYMid meet">
<metadata>
Created by potrace 1.11, written by Peter Selinger 2001-2013
</metadata>
<g transform="translate(0.000000,960.000000) scale(0.100000,-0.100000)"
fill="#000000" stroke="none">
<path d="M5298 8185 c-2 -2 -23 -6 -48 -9 -25 -3 -56 -8 -70 -11 -14 -3 -38
-8 -55 -10 -40 -8 -174 -45 -205 -58 -14 -5 -29 -11 -35 -12 -38 -9 -226 -110
-314 -169 -106 -70 -296 -247 -357 -331 -16 -22 -31 -42 -34 -45 -5 -5 -37
-54 -76 -115 -30 -48 -103 -195 -97 -195 3 0 1 -6 -5 -12 -17 -23 -70 -190
-91 -293 -21 -106 -30 -167 -30 -227 -1 -34 -6 -39 -59 -72 -61 -37 -182 -100
-194 -101 -4 0 -13 -6 -19 -12 -7 -7 -18 -13 -25 -13 -6 0 -42 -13 -80 -29
-71 -30 -109 -44 -109 -40 0 1 -9 -3 -21 -9 -28 -15 -241 -69 -322 -82 -141
-23 -351 -30 -468 -17 -28 3 -77 9 -110 12 -77 9 -234 41 -348 71 -50 14 -98
26 -106 28 -43 11 -208 70 -226 81 -19 12 -70 29 -134 43 -81 18 -269 -1 -307
-31 -7 -5 -13 -7 -13 -4 0 8 -105 -50 -133 -72 -44 -35 -107 -100 -107 -110 0
-6 -4 -11 -8 -11 -23 0 -97 -171 -108 -246 -5 -42 -9 -179 -4 -179 1 0 4 -13
6 -30 7 -40 37 -123 64 -171 86 -152 243 -263 410 -289 52 -8 162 -9 187 -1
10 3 33 8 51 11 47 8 129 46 208 97 226 147 525 280 729 324 6 1 30 7 55 14
25 7 52 13 60 15 8 2 44 11 80 20 36 9 72 19 80 21 8 2 47 13 85 24 39 11 84
23 100 26 42 8 60 12 60 14 0 1 23 3 50 5 125 11 144 13 154 19 5 4 12 3 14
-1 4 -7 104 -9 132 -3 6 1 12 1 15 0 3 -1 41 -3 85 -5 44 -2 105 -7 135 -10
30 -4 71 -8 90 -11 33 -4 82 -11 140 -21 50 -8 61 -15 77 -51 9 -20 17 -39 18
-42 5 -17 71 -117 132 -199 95 -128 183 -217 309 -314 70 -53 215 -143 248
-153 11 -4 23 -10 26 -14 11 -15 300 -115 300 -104 0 3 8 0 19 -5 10 -6 38
-13 61 -16 23 -3 56 -8 74 -11 103 -18 351 -19 451 0 17 3 44 8 60 10 56 10
74 15 152 37 93 26 246 90 326 136 54 32 68 47 48 55 -12 4 -57 40 -195 153
-66 55 -129 107 -139 115 -10 8 -31 25 -45 37 -30 26 -36 27 -61 13 -18 -9
-149 -44 -211 -56 -52 -10 -290 -12 -296 -2 -3 5 -8 6 -12 4 -6 -4 -43 2 -121
20 -112 25 -260 95 -371 176 -104 76 -290 286 -290 327 0 5 -3 11 -8 13 -8 3
-72 143 -88 193 -10 30 -35 135 -41 170 -9 51 -8 265 1 329 17 124 94 333 144
389 8 9 11 17 6 17 -5 0 -4 4 2 8 6 4 21 23 35 43 57 85 129 158 254 257 63
50 265 145 336 157 18 3 36 8 41 11 5 3 21 8 36 10 316 47 577 -7 814 -168 76
-52 211 -183 266 -258 90 -124 174 -325 192 -460 5 -42 4 -301 -2 -345 -11
-84 -47 -195 -94 -293 l-44 -93 57 -95 c32 -52 82 -125 111 -162 56 -69 138
-162 145 -162 11 0 121 168 164 250 126 242 178 463 176 750 0 187 -32 357
-97 534 -33 87 -93 213 -106 221 -6 4 -8 11 -5 16 4 5 1 9 -4 9 -6 0 -11 5
-11 10 0 12 -51 87 -119 174 -64 84 -190 206 -283 276 -65 49 -210 142 -228
146 -3 0 -36 15 -75 33 -206 95 -415 139 -662 139 -78 -1 -144 -2 -145 -3z"/>
<path d="M1458 7555 c-2 -1 -30 -5 -63 -9 -33 -3 -71 -9 -85 -12 -14 -3 -34
-7 -45 -8 -195 -31 -483 -168 -670 -319 -77 -63 -220 -212 -266 -277 -13 -19
-27 -37 -30 -40 -37 -31 -190 -331 -204 -400 -2 -8 -8 -27 -14 -43 -12 -30
-39 -143 -47 -192 -16 -105 -19 -146 -18 -290 0 -88 3 -178 7 -200 4 -22 10
-56 14 -75 6 -39 7 -42 17 -85 75 -294 205 -523 422 -742 66 -68 125 -123 130
-123 5 0 20 -10 34 -23 81 -74 349 -214 465 -243 6 -2 35 -10 65 -19 217 -62
484 -75 690 -34 30 5 66 12 80 15 31 6 189 54 210 64 41 20 92 40 101 40 15 0
177 -82 251 -127 34 -22 74 -46 87 -54 14 -8 32 -19 40 -26 9 -6 54 -40 101
-74 80 -60 291 -262 354 -339 153 -189 309 -504 401 -815 15 -49 30 -97 32
-105 3 -8 7 -22 8 -30 1 -8 5 -30 9 -47 3 -18 8 -48 11 -65 24 -146 123 -296
253 -381 100 -67 202 -96 327 -92 55 1 109 5 120 8 11 3 34 10 51 15 133 41
275 164 337 292 36 73 41 89 56 178 8 43 6 146 -2 192 -10 48 -39 125 -69 180
-32 58 -169 200 -193 200 -8 0 -15 5 -15 10 0 6 -6 10 -12 10 -13 0 -312 147
-353 172 -11 7 -56 35 -100 63 -44 27 -82 52 -85 55 -3 3 -30 24 -60 47 -30
23 -68 54 -85 68 -50 44 -167 149 -189 170 -12 11 -55 49 -96 85 -126 109
-180 162 -240 235 -67 82 -180 247 -180 262 0 6 -3 13 -7 15 -11 4 -54 82
-123 222 -61 124 -62 129 -23 171 29 30 126 191 163 270 35 75 94 240 104 290
3 17 10 50 15 75 12 58 21 115 26 174 3 40 1 46 -16 46 -10 0 -94 -21 -186
-46 -177 -49 -196 -54 -228 -59 -11 -2 -33 -8 -50 -15 -16 -6 -32 -10 -34 -8
-2 2 -14 -33 -26 -77 -52 -178 -144 -333 -280 -469 -167 -167 -368 -268 -605
-304 -55 -8 -238 -8 -300 0 -84 11 -248 58 -276 80 -6 4 -14 5 -17 1 -4 -3 -7
-2 -7 4 0 6 -10 13 -23 17 -44 11 -209 129 -281 200 -71 71 -166 193 -166 214
0 6 -4 12 -8 14 -10 4 -75 138 -88 183 -44 147 -60 249 -58 360 1 94 11 175
26 230 6 22 13 49 15 60 6 35 44 128 80 200 61 119 180 265 276 338 16 12 42
32 57 45 15 12 33 22 39 22 6 0 11 5 11 10 0 6 4 10 10 10 5 0 31 13 57 28 26
16 62 33 78 39 17 7 53 20 81 31 28 11 66 22 85 26 19 3 45 8 59 11 70 15 104
17 200 17 58 0 121 -3 140 -6 55 -8 93 -16 120 -23 14 -3 27 -7 30 -8 81 -19
225 -88 315 -148 54 -37 82 -60 164 -137 61 -57 170 -213 200 -287 7 -18 21
-33 30 -34 9 -1 37 -2 63 -4 25 -2 51 -6 57 -9 5 -4 12 -2 16 4 4 6 10 8 14 6
17 -11 181 -5 251 9 14 2 41 7 60 10 19 4 39 10 44 15 8 8 -31 125 -58 175 -5
11 -11 22 -11 25 -3 14 -71 140 -109 198 -179 279 -496 529 -801 631 -38 12
-77 25 -85 28 -22 9 -31 11 -75 18 -22 4 -44 9 -48 12 -4 2 -22 7 -40 9 -18 3
-48 7 -67 10 -38 6 -337 14 -342 9z"/>
<path d="M5448 7155 c-2 -2 -25 -5 -53 -8 -113 -13 -244 -76 -326 -157 -220
-218 -232 -577 -25 -807 51 -56 178 -141 236 -158 69 -19 353 -154 411 -196
15 -10 32 -19 38 -19 6 0 11 -4 11 -10 0 -5 5 -10 11 -10 5 0 44 -25 84 -55
41 -30 77 -55 80 -55 3 0 16 -10 28 -23 12 -12 60 -54 107 -92 47 -38 90 -74
96 -80 6 -5 26 -22 45 -37 19 -14 45 -36 58 -47 13 -12 28 -21 32 -21 9 0 203
-191 229 -225 9 -11 29 -38 45 -60 16 -22 32 -42 36 -45 13 -12 127 -192 175
-277 l52 -91 -72 -99 c-72 -97 -166 -261 -166 -287 0 -8 -3 -16 -7 -18 -19 -8
-88 -230 -109 -348 -8 -47 -17 -134 -20 -194 -5 -91 -3 -108 8 -99 7 6 45 23
83 37 39 15 79 30 90 35 19 8 198 70 220 75 6 2 21 8 35 13 14 6 28 9 33 6 4
-2 7 1 7 6 0 6 9 11 20 11 11 0 20 6 21 13 1 21 9 61 21 102 6 22 12 42 12 45
1 3 4 10 7 15 4 6 10 25 14 43 3 17 10 32 15 32 4 0 10 12 13 28 12 55 121
214 212 306 82 83 195 170 256 196 13 5 31 14 39 19 8 5 40 19 70 32 47 19 76
27 180 53 160 40 444 19 595 -43 62 -26 177 -85 220 -113 168 -111 319 -295
394 -480 90 -222 109 -448 57 -663 -2 -5 -6 -27 -11 -48 -4 -20 -11 -40 -16
-43 -5 -3 -7 -9 -4 -14 3 -5 1 -11 -5 -15 -5 -3 -10 -13 -10 -22 0 -26 -104
-220 -130 -243 -3 -3 -16 -20 -29 -38 -98 -140 -352 -314 -521 -357 -8 -2 -39
-11 -69 -19 -128 -35 -299 -40 -456 -12 -170 31 -350 117 -489 236 -53 45
-110 104 -146 150 -19 25 -37 47 -41 50 -3 3 -18 28 -33 55 -15 28 -32 54 -37
59 -5 5 -57 9 -116 7 -111 -2 -134 -3 -238 -16 -84 -11 -88 -12 -105 -18 -8
-3 -26 -7 -40 -9 -34 -4 -30 -19 35 -154 85 -175 162 -283 300 -419 50 -49
100 -97 111 -105 76 -60 132 -100 142 -100 5 0 12 -3 14 -7 9 -21 176 -105
323 -164 26 -10 97 -32 111 -35 7 -1 44 -9 84 -18 39 -9 93 -20 118 -23 63
-10 376 -8 432 1 25 5 54 9 65 11 119 18 422 127 476 172 8 7 19 13 23 13 9 0
143 87 162 105 6 5 29 23 50 40 51 39 190 178 235 235 70 89 131 186 179 285
59 123 80 171 85 193 2 9 10 37 18 62 17 50 34 125 43 184 3 21 8 48 11 60 3
11 6 93 8 181 2 155 -11 296 -35 379 -7 22 -14 48 -16 59 -7 41 -58 183 -75
215 -10 17 -17 32 -14 32 9 0 -117 225 -135 240 -3 3 -17 21 -30 40 -36 53
-120 149 -169 194 -24 23 -51 48 -60 57 -71 70 -210 162 -346 229 -88 43 -249
104 -310 116 -11 2 -31 6 -45 9 -14 3 -36 7 -50 10 -14 3 -43 8 -65 11 -22 3
-51 8 -65 10 -31 5 -250 5 -305 -1 -92 -10 -155 -20 -220 -36 -61 -15 -70 -17
-72 -19 -2 -2 -6 -3 -10 -4 -34 -9 -100 -31 -108 -36 -5 -4 -31 -14 -58 -24
l-47 -18 -125 61 c-147 72 -377 215 -405 251 -3 4 -12 11 -21 16 -53 30 -228
201 -312 304 -125 155 -267 416 -356 652 -44 118 -93 271 -106 332 -2 11 -6
32 -9 45 -11 51 -74 158 -124 213 -91 98 -221 169 -337 184 -49 6 -114 11
-117 9z"/>
<path d="M4066 4562 c-2 -1 -27 -4 -57 -7 -30 -2 -67 -6 -84 -9 -16 -3 -46 -8
-65 -11 -138 -24 -347 -99 -465 -168 -27 -16 -52 -31 -55 -34 -5 -4 59 -66
151 -144 30 -26 66 -57 80 -70 14 -13 56 -52 93 -86 l68 -62 49 19 c27 11 49
17 49 14 0 -4 6 -2 13 4 16 13 74 26 182 41 58 8 244 6 295 -3 56 -10 77 -14
120 -27 25 -7 47 -13 50 -14 59 -14 180 -74 269 -132 138 -92 263 -230 351
-387 20 -37 68 -155 75 -186 2 -8 4 -15 5 -15 2 0 10 -34 15 -60 2 -11 4 -20
5 -20 1 0 3 -9 5 -20 1 -11 6 -42 10 -68 23 -158 -8 -393 -71 -535 -13 -29
-23 -56 -23 -60 -1 -14 -85 -148 -126 -202 -54 -70 -134 -148 -210 -205 -59
-45 -269 -155 -296 -155 -8 0 -32 -7 -54 -14 -67 -23 -217 -43 -297 -40 -101
5 -194 16 -240 30 -9 3 -25 6 -35 8 -54 11 -225 83 -231 99 -2 4 -9 7 -16 7
-15 0 -129 78 -134 91 -2 5 -8 9 -13 9 -14 0 -146 137 -181 188 -18 26 -35 49
-40 50 -4 2 -8 10 -8 17 0 7 -3 15 -8 17 -13 6 -117 228 -107 228 3 0 -1 17
-9 38 -35 94 -53 327 -34 442 10 56 29 144 35 160 4 8 7 17 8 20 8 31 23 68
57 138 l40 83 -56 99 c-59 103 -145 223 -213 299 l-40 44 -34 -49 c-18 -27
-36 -50 -41 -52 -4 -2 -8 -10 -8 -18 0 -8 -3 -14 -7 -14 -5 0 -13 -10 -19 -23
-6 -12 -32 -60 -57 -107 -50 -94 -114 -258 -123 -317 -3 -21 -8 -42 -12 -47
-3 -5 -7 -19 -9 -30 -1 -12 -7 -44 -12 -71 -34 -186 -28 -416 13 -600 1 -5 6
-26 10 -45 28 -129 139 -382 212 -482 19 -27 34 -51 34 -54 0 -3 6 -11 13 -19
6 -7 28 -33 47 -57 63 -79 227 -237 287 -275 15 -9 30 -20 33 -23 16 -19 240
-150 255 -149 3 0 26 -9 51 -21 26 -11 51 -20 56 -20 5 0 19 -5 31 -12 12 -7
29 -13 37 -14 8 -2 49 -12 90 -23 151 -40 228 -48 410 -45 96 1 186 5 200 7
114 22 120 23 170 37 25 7 52 14 60 15 8 2 16 4 18 5 1 2 5 3 10 4 4 1 50 18
102 39 301 118 562 332 744 610 55 84 120 218 160 327 18 52 34 97 34 100 0 3
5 23 10 45 12 42 19 79 27 130 3 17 7 39 9 50 3 11 5 23 5 27 1 3 18 17 39 29
20 13 46 31 56 41 11 10 23 18 27 18 5 0 27 13 51 29 84 56 373 196 428 207 3
0 12 3 20 7 79 32 282 79 412 94 121 14 397 8 543 -12 82 -12 100 -14 121 -19
12 -2 39 -7 60 -10 71 -11 259 -59 287 -73 15 -7 27 -11 27 -8 0 3 8 1 18 -4
20 -11 111 -23 162 -23 118 3 248 46 335 112 57 43 135 135 168 197 179 341
-9 749 -388 840 -78 19 -270 6 -302 -20 -7 -5 -13 -7 -13 -3 0 7 -122 -52
-130 -63 -20 -26 -287 -208 -370 -252 -25 -13 -47 -27 -50 -30 -8 -10 -191
-95 -235 -109 -22 -7 -44 -16 -50 -20 -5 -4 -48 -19 -95 -34 -47 -15 -92 -30
-100 -33 -8 -4 -17 -7 -20 -8 -27 -6 -118 -40 -139 -51 -14 -8 -33 -14 -42
-14 -8 0 -19 -4 -25 -8 -12 -12 -151 -54 -180 -56 -13 0 -24 -3 -24 -6 0 -3
-8 -6 -17 -6 -16 -1 -58 -7 -133 -19 -88 -15 -379 -23 -475 -14 -38 4 -41 7
-57 52 -98 278 -316 563 -562 736 -175 122 -385 217 -571 256 -60 13 -141 26
-180 29 -11 1 -25 5 -32 9 -6 4 -14 3 -18 -2 -3 -6 -12 -8 -20 -5 -15 6 -184
12 -189 6z"/>
</g>
</svg>
